<svg width="500" height="500" viewBox="0 0 125 125" fill="none" xmlns="http://www.w3.org/2000/svg">
<circle cx="62.5" cy="62.5" r="61.5" stroke="#AE4A2A" stroke-width="2"/>
<path d="M66.1181 70.2891L75.2181 77.1021L82.1351 67.8561C83.0997 66.5661 83.5499 64.9633 83.3981 63.3596C83.2464 61.756 82.5035 60.2661 81.314 59.1799C80.1245 58.0937 78.5735 57.4888 76.9627 57.483C75.3519 57.4771 73.7965 58.0706 72.5991 59.1481C71.2486 58.5737 69.7423 58.4781 68.3301 58.8772C66.9178 59.2762 65.6843 60.1459 64.8341 61.3421C64.3293 62.0015 63.9593 62.7539 63.7453 63.5563C63.5313 64.3587 63.4774 65.1954 63.5868 66.0186C63.6962 66.8418 63.9667 67.6354 64.3828 68.3541C64.799 69.0728 65.3526 69.7024 66.0121 70.2071L66.1221 70.2901L66.1181 70.2891ZM67.4731 63.2001C67.7734 62.788 68.1661 62.452 68.6197 62.2191C69.0733 61.9862 69.5752 61.8629 70.0851 61.8591C70.7624 61.8592 71.4211 62.0804 71.9611 62.4891L73.2471 63.4471L74.2141 62.1691L74.3321 62.0141C74.5879 61.6706 74.9093 61.3813 75.2776 61.1628C75.646 60.9443 76.054 60.8009 76.4781 60.7411C77.3345 60.6219 78.2034 60.8454 78.8961 61.3631C79.2393 61.6175 79.5285 61.9376 79.7467 62.3048C79.9649 62.6721 80.1078 63.0791 80.1671 63.5021C80.2272 63.9573 80.1935 64.4199 80.0681 64.8615C79.9428 65.3031 79.7284 65.7145 79.4381 66.0701L74.5651 72.5801L68.0551 67.7091C67.7229 67.4681 67.4414 67.164 67.2267 66.8142C67.0121 66.4644 66.8684 66.0757 66.8039 65.6704C66.7395 65.265 66.7555 64.851 66.8511 64.4518C66.9467 64.0527 67.12 63.6763 67.3611 63.3441C67.3971 63.2951 67.4341 63.2441 67.4731 63.1991" fill="#AE4A2A"/>
<path d="M72.55 21.0739C83.15 23.3809 90.615 33.4799 90.685 33.5739C90.755 33.6679 97.794 43.4589 99.714 48.2629L102.714 47.0629C100.646 41.8979 93.604 32.1009 93.302 31.6819C92.972 31.2269 85.063 20.4939 73.238 17.9209C61.914 15.4669 53.546 18.5399 51.281 19.9299L50.924 20.1479L50.724 20.5139C49.8916 21.9706 49.2926 23.5487 48.949 25.1909C46.629 26.7699 43.811 30.5089 43.849 32.7099C43.85 33.1268 43.9578 33.5365 44.162 33.8999C41.943 36.3429 42.162 37.0999 42.344 37.6999C42.5063 38.1565 42.7814 38.5646 43.1436 38.8865C43.5058 39.2083 43.9435 39.4334 44.416 39.5409C44.9162 39.6831 45.434 39.7538 45.954 39.7509C46.9801 39.7369 47.9935 39.5208 48.936 39.1149C49.0156 39.6244 49.243 40.0994 49.59 40.4809C49.9065 40.8197 50.2936 41.0849 50.7239 41.2576C51.1541 41.4304 51.6171 41.5067 52.08 41.4809C53.5121 41.3798 54.9227 41.0768 56.27 40.5809C57.7831 40.104 59.3381 39.7718 60.914 39.5889C61.843 39.5969 62.814 39.6349 63.789 39.6739C66.989 39.7999 70.009 39.9169 71.889 39.1609C72.8856 38.6959 73.8353 38.1364 74.725 37.4899C78.263 39.9109 87.771 47.1609 90.894 56.9899C92.306 61.6396 92.7474 66.5298 92.1911 71.3572C91.6348 76.1846 90.0926 80.8463 87.66 85.0529C84.7064 90.1147 80.1888 94.0802 74.787 96.3529C73.7394 96.7709 72.6513 97.0789 71.54 97.2719C72.6843 96.4689 73.5287 95.3079 73.94 93.9719C74.24 92.8369 73.915 90.3239 70.574 88.9419C68.8565 88.4565 67.0636 88.2954 65.287 88.4669C63.1749 88.6221 61.0514 88.4607 58.987 87.9879C54.9395 86.9056 50.6383 87.3082 46.862 89.1229C45.645 89.7789 43.939 88.6819 43.901 88.6819L31.634 76.7419L29.381 79.0539L41.832 91.1539C43.101 92.0869 45.913 93.3059 48.392 91.9649C51.4002 90.5407 54.8148 90.2251 58.033 91.0739C60.4256 91.66 62.8949 91.8699 65.352 91.6959C66.6842 91.58 68.0261 91.6578 69.336 91.9269C70.544 92.4269 70.822 92.9949 70.815 93.1589C70.759 93.3489 69.362 97.7509 59.077 95.0909C59.04 95.0689 59.001 95.0509 58.963 95.0289L58.947 95.0569C58.823 95.0239 58.705 94.9959 58.579 94.9569L58.2 96.3419L57.344 97.8159C57.474 97.8909 57.605 97.9629 57.736 98.0349L57.727 98.0689L57.856 98.1029C61.0788 99.8659 64.6916 100.794 68.365 100.803C70.9793 100.81 73.5705 100.314 75.997 99.3409C77.2787 98.8161 78.5198 98.197 79.71 97.4889C79.3291 98.1522 78.8515 98.7552 78.293 99.2779C72.483 105.094 63.939 106.46 51.408 103.578C47.641 102.859 44.003 101.58 40.615 99.7829C38.264 98.3959 29.953 90.5289 26.405 87.1659C24.291 85.1659 24.105 84.9929 23.894 84.8489L22 87.4699C22.208 87.6439 23.017 88.4119 24.179 89.5129C30.479 95.4729 36.623 101.18 38.966 102.567C42.6368 104.537 46.5855 105.939 50.677 106.724C54.5911 107.674 58.5997 108.18 62.627 108.233C70.186 108.233 76.11 106.019 80.566 101.563C82.655 99.4699 83.472 97.6289 83.06 95.9349C83.0087 95.729 82.9387 95.5282 82.851 95.3349C85.8837 92.9477 88.4493 90.021 90.419 86.7019C93.0783 82.1024 94.7644 77.0056 95.3727 71.7275C95.9809 66.4495 95.4984 61.1028 93.955 56.0189C90.78 46.0189 82.011 38.7189 77.601 35.5629C78.6143 34.7966 79.7733 34.245 81.007 33.9419L81.196 30.7229C79.303 30.6689 76.838 32.1439 73.631 34.3229C72.6936 35.008 71.7069 35.623 70.679 36.1629C69.435 36.6629 66.497 36.5539 63.9 36.4489C62.9 36.4109 61.893 36.3729 60.937 36.3609C59.0118 36.4282 57.1108 36.8117 55.31 37.4959C54.3293 37.8231 53.3303 38.0926 52.318 38.3029C53.0776 37.3321 53.9743 36.4768 54.98 35.7639C57.086 35.1711 59.2555 34.8327 61.442 34.7559L61.369 31.5289C60.549 31.5499 53.269 31.7979 49.681 34.8779C48.712 35.7831 47.4797 36.3559 46.163 36.5129C47.6278 34.9331 49.1781 33.4349 50.807 32.0249L60.368 30.0539L59.717 26.8939L49.427 29.0129C49.9077 28.4533 50.4887 27.9883 51.14 27.6419C53.9319 26.6537 56.7758 25.8191 59.659 25.1419L58.907 22.0069C58.719 22.0509 55.518 22.8209 52.765 23.6589C52.932 23.2679 53.117 22.8729 53.309 22.5029C54.909 21.7289 61.981 18.7749 72.547 21.0739" fill="#AE4A2A"/>
</svg>
